<svg width="240" height="392" viewBox="0 0 240 392" fill="none" xmlns="http://www.w3.org/2000/svg">
<path d="M192.2 220.64L194.3 216.633L227.1 196.494L240 220.64L239.4 223.593L205.3 244.471L192.2 220.64Z" fill="#FF5ED2"/>
<path d="M226.429 199.824L192.222 220.649L205.222 244.39L239.429 223.565L226.429 199.824Z" fill="#FF6ED9"/>
<path d="M58.2 376.17C58.2 376.17 52.6 340.002 57.9 304.573C63.3 268.617 72.4 231.079 72.4 231.079C72.4 231.079 101.2 237.406 121.7 233.399C142.2 229.392 166.7 222.116 166.7 222.116C166.7 222.116 170.9 242.467 173.3 266.719C175.6 290.971 174.1 287.281 177.4 299.196C180.7 311.111 192.3 345.907 196.6 356.135C201 366.363 205.7 379.017 205.7 379.017H190.4C190.4 379.017 160.2 345.802 147.4 325.768C134.6 305.733 118.8 270.199 118.8 270.199C118.8 270.199 101.8 307.315 94.9 322.71C88 338.21 70.7 379.649 70.7 379.649L58.2 376.17Z" fill="#4E3734"/>
<path d="M120.9 96.1111C137.027 96.1111 150.1 82.3262 150.1 65.3216C150.1 48.3169 137.027 34.532 120.9 34.532C104.773 34.532 91.7 48.3169 91.7 65.3216C91.7 82.3262 104.773 96.1111 120.9 96.1111Z" fill="#DF8E89"/>
<path d="M145.9 81.349C148.6 76.7095 150.2 71.121 150.2 65.3216C150.2 48.2397 137.1 34.532 121 34.532C115 34.532 109.5 36.43 104.9 39.6987C104.9 39.6987 101.7 50.7703 109.5 58.0459C117.4 65.427 125.9 61.2093 125.9 61.2093C125.9 61.2093 122.6 71.8591 131.2 78.502C138.5 84.196 145.9 81.349 145.9 81.349Z" fill="#4E3734"/>
<path d="M149.2 52.8792C163.007 52.8792 174.2 41.077 174.2 26.5183C174.2 11.9595 163.007 0.157349 149.2 0.157349C135.393 0.157349 124.2 11.9595 124.2 26.5183C124.2 41.077 135.393 52.8792 149.2 52.8792Z" fill="#4E3734"/>
<path d="M122.1 252.801C122.1 252.801 121.1 259.971 120.3 263.767C119.5 267.563 118.7 270.304 118.7 270.304L127.3 288.757C127.3 288.757 127.7 273.468 126.1 264.927C124.5 256.386 122.1 252.801 122.1 252.801Z" fill="#362E2D"/>
<path d="M58.2 376.17C58.2 376.17 48.3 377.962 43.2 378.595C38.1 379.228 31.5 381.02 30.9 383.551C30.3 386.081 39.1 388.612 52.9 390.194C66.7 391.67 67.9 393.357 69.1 385.132C69.6 381.336 70.5 379.86 70.5 379.86L58.2 376.17Z" fill="#FF353A"/>
<path d="M192.9 379.228C192.9 379.228 183.8 380.915 179 383.024C174.2 385.132 170.5 387.347 170.5 389.983C170.5 391.986 179.2 391.354 192.8 391.459C206.7 391.564 210.6 391.881 208.2 383.973C207.4 381.231 205.1 379.017 205.1 379.017L192.9 379.228Z" fill="#FF353A"/>
<path d="M29.5 160.01C29.5 160.01 24.9 154 21.7 152.102C18.5 150.204 13 148.095 10.4 146.513C7.8 144.932 2.60001 141.241 1.10001 143.666C-0.399988 146.091 1.90001 150.309 5.50001 152.524C9.10001 154.843 14.7 164.966 20 165.704C25.3 166.442 27.6 166.653 27.6 166.653L29.5 160.01Z" fill="#DF8E89"/>
<path d="M206.6 198.286C206.6 198.286 208.9 197.337 212.3 200.922C215.7 204.507 218.9 212.732 220.1 215.79C221.3 218.848 221.6 221.906 222.7 224.014C223.8 226.229 224.1 228.548 222.7 229.392C221.3 230.236 217.1 226.861 213.8 223.382C210.5 219.902 206.5 217.582 204.4 212.837C202.4 208.303 202.6 204.613 202.6 204.613L206.6 198.286Z" fill="#DF8E89"/>
<path d="M31 155.16C31 155.16 46.6 158.112 52.1 159.167C57.6 160.221 64.1 161.486 64.1 161.486C64.1 161.486 79.6 140.608 90.2 129.115C100.8 117.727 106.6 109.819 122.3 109.819C142.5 109.819 166.2 136.812 179.1 152.734C194 171.187 208.2 195.755 208.2 195.755L200.4 208.198C200.4 208.198 182.3 193.752 175.1 189.534C167.9 185.317 157.4 179.728 157.4 179.728C157.4 179.728 161.2 190.589 163.8 202.715C166.4 214.841 166.8 222.011 166.8 222.011C166.8 222.011 150.1 233.926 120.7 235.719C91.3 237.511 72.5 230.974 72.5 230.974C72.5 230.974 74.1 219.059 75.8 211.256C77.5 203.558 79.4 196.704 79.4 196.704C79.4 196.704 68.8 197.653 55.1 192.592C37.3 186.055 26.2 171.398 26.2 171.398L31 155.16Z" fill="#7B6DCF"/>
<path d="M79.3 196.81C79.3 196.81 76.8 206.3 76.1 209.674C75.4 213.048 74.6 217.266 74.6 217.266C74.6 217.266 106 184.895 112.8 176.986C119.6 169.078 131.7 155.054 131.4 142.717C131.1 130.38 128.8 127.639 128.8 127.639C128.8 127.639 130.2 135.547 127.5 143.666C123.7 154.949 107.9 169.605 100.4 176.986C94.2 183.208 79.3 196.81 79.3 196.81Z" fill="#6A5AC1"/>
<path d="M148.4 146.619C148.4 146.619 152.5 159.061 154.1 164.86C155.7 170.66 157.3 179.728 157.3 179.728L163.3 182.997C163.3 182.997 159 169.816 156.3 162.541C153.6 155.265 148.4 146.619 148.4 146.619Z" fill="#6A5AC1"/>
<path d="M151.8 188.164L151.3 192.698L154.5 195.65L150.4 196.494L148.7 200.606L146.6 196.704L142.3 196.388L145.2 193.014L144.3 188.691L148.1 190.483L151.8 188.164Z" fill="#FF6ED9"/>
<path d="M166.7 222.116C166.7 222.116 166.6 220.324 166.2 216.95L164.2 219.48L160.7 219.164L162.6 222.327L161.3 225.385C164.9 223.382 166.7 222.116 166.7 222.116Z" fill="#FF6ED9"/>
<path d="M83.4 139.976L85 142.928L86.3 139.765L89.5 139.027L87 136.812L87.4 133.438L85.4 134.704C84 136.285 82.6 137.972 81.2 139.765L83.4 139.976Z" fill="#FF6ED9"/>
<path d="M84 233.821L87.5 232.977L84.2 230.13L84.6 225.701L81 228.127L77.1 226.44L78.2 230.763L76.9 232.344C78.7 232.766 81.1 233.293 84 233.821Z" fill="#FF6ED9"/>
<path d="M134.4 219.164L136.8 219.902L138.7 218.11L138.8 220.746L141 222.116L138.7 223.065L138.1 225.596L136.5 223.593L134.1 223.804L135.4 221.589L134.4 219.164Z" fill="#FF6ED9"/>
<path d="M86.4 168.024L89.5 168.867L92 166.653L92.2 170.133L94.9 171.82L91.9 173.085L91.2 176.354L89.1 173.718L85.9 174.034L87.7 171.187L86.4 168.024Z" fill="#FF6ED9"/>
<path d="M196.1 176.354L195.8 176.565L192.7 175.721L194 178.884L192.3 181.731L195.5 181.415L197.5 184.051L198.2 180.782L198.8 180.572C198 179.201 197.1 177.83 196.1 176.354Z" fill="#FF6ED9"/>
<path d="M121.7 174.772L123.4 175.194L124.7 174.034L124.8 175.827L126.3 176.776L124.7 177.408L124.3 179.201L123.2 177.83L121.5 178.041L122.4 176.459L121.7 174.772Z" fill="#FF6ED9"/>
<path d="M63 186.687L64.4 185.633V183.84L65.8 184.895L67.4 184.262L66.9 186.055L68 187.531H66.2L65.2 189.007L64.7 187.215L63 186.687Z" fill="#FF6ED9"/>
<path d="M195.9 199.868L197.6 200.29L198.9 199.13L199 200.922L200.5 201.871L198.9 202.609L198.5 204.402L197.4 202.926L195.7 203.137L196.6 201.555L195.9 199.868Z" fill="#FF6ED9"/>
<path d="M121.7 118.149L123.4 118.676L124.7 117.411L124.8 119.309L126.3 120.258L124.7 120.89L124.3 122.683L123.2 121.312L121.5 121.418L122.4 119.836L121.7 118.149Z" fill="#FF6ED9"/>
<path d="M165.9 151.047L167.6 151.469L168.9 150.309L169 152.102L170.5 153.051L168.9 153.683L168.5 155.476L167.4 154.105L165.6 154.316L166.6 152.734L165.9 151.047Z" fill="#FF6ED9"/>
<path d="M41.6 168.551L44.5 169.395L46.8 167.286L47 170.449L49.6 172.136L46.8 173.296L46.1 176.459L44.2 173.929L41.1 174.245L42.8 171.503L41.6 168.551Z" fill="#FF6ED9"/>
<path d="M103.6 200.606L108.8 204.824L114.9 202.609L112.8 209.041L116.6 214.524L110.2 214.419L106.4 220.008L104.5 213.47L98.4 211.361L103.7 207.46L103.6 200.606Z" fill="#FF6ED9"/>
<path d="M106 133.438L110.1 136.707L115 135.02L113.3 140.081L116.4 144.51L111.2 144.404L108.2 148.728L106.7 143.561L101.9 141.979L106.1 138.816L106 133.438Z" fill="#FF6ED9"/>
<path d="M175.1 178.568L172.3 174.034L170.6 179.095L165.6 180.466L169.6 183.84L169.5 186.476C170.2 186.898 170.9 187.215 171.5 187.636L173.6 186.16L178.4 188.164L177 182.997L180.3 178.779L175.1 178.568Z" fill="#FF6ED9"/>
<path d="M142.9 133.438L148.6 130.17L154.4 133.227L153.2 126.479L154 125.635C151.5 123.421 148.9 121.312 146.3 119.414L145.7 120.89L139.3 122.05L144 126.69L142.9 133.438Z" fill="#FF6ED9"/>
</svg>
