<svg width="260" height="235" viewBox="0 0 260 235" fill="none" xmlns="http://www.w3.org/2000/svg">
<path d="M87.438 106.554C95.2033 106.554 102.423 108.253 109.096 111.65C115.769 115.047 121.108 119.84 125.112 126.028C129.116 132.216 131.118 139.314 131.118 147.322C131.118 156.179 128.813 164.005 124.202 170.8C119.713 177.595 113.525 182.812 105.638 186.452C97.7513 190.092 89.0153 191.912 79.43 191.912C67.1753 191.912 56.4373 189.546 47.216 184.814C38.116 180.082 31.018 173.045 25.922 163.702C20.826 154.359 18.278 142.893 18.278 129.304C18.278 114.744 21.19 102.125 27.014 91.448C32.9593 80.7707 41.21 72.6413 51.766 67.06C62.4433 61.4787 74.8193 58.688 88.894 58.688C96.538 58.688 103.818 59.598 110.734 61.418C117.65 63.1167 123.535 65.5433 128.388 68.698L112.918 98.728C106.609 94.2387 98.904 91.994 89.804 91.994C82.4027 91.994 76.2753 93.8747 71.422 97.636C66.69 101.276 63.596 106.615 62.14 113.652C68.8133 108.92 77.246 106.554 87.438 106.554ZM76.518 162.246C80.4007 162.246 83.5553 161.093 85.982 158.788C88.4087 156.483 89.622 153.328 89.622 149.324C89.622 145.32 88.4087 142.165 85.982 139.86C83.5553 137.433 80.4007 136.22 76.518 136.22C72.6353 136.22 69.4807 137.433 67.054 139.86C64.6273 142.165 63.414 145.32 63.414 149.324C63.414 153.328 64.6273 156.483 67.054 158.788C69.4807 161.093 72.6353 162.246 76.518 162.246ZM196.298 191.912C185.014 191.912 175.004 189.303 166.268 184.086C157.654 178.747 150.859 171.103 145.884 161.154C141.031 151.083 138.604 139.132 138.604 125.3C138.604 111.468 141.031 99.5773 145.884 89.628C150.859 79.5573 157.654 71.9133 166.268 66.696C175.004 61.3573 185.014 58.688 196.298 58.688C207.582 58.688 217.532 61.3573 226.146 66.696C234.882 71.9133 241.677 79.5573 246.53 89.628C251.505 99.5773 253.992 111.468 253.992 125.3C253.992 139.132 251.505 151.083 246.53 161.154C241.677 171.103 234.882 178.747 226.146 184.086C217.532 189.303 207.582 191.912 196.298 191.912ZM196.298 157.514C206.005 157.514 210.858 146.776 210.858 125.3C210.858 103.824 206.005 93.086 196.298 93.086C186.592 93.086 181.738 103.824 181.738 125.3C181.738 146.776 186.592 157.514 196.298 157.514Z" fill="#534FD2"/>
<path d="M66.43 178.912C54.2967 178.912 43.6193 176.607 34.398 171.996C25.298 167.264 18.1393 160.287 12.922 151.066C7.826 141.723 5.278 130.136 5.278 116.304C5.278 101.38 8.25067 88.7007 14.196 78.266C20.1413 67.71 28.392 59.6413 38.948 54.06C49.6253 48.4787 61.9407 45.688 75.894 45.688C83.4167 45.688 90.636 46.598 97.552 48.418C104.589 50.1167 110.535 52.5433 115.388 55.698L99.918 85.728C96.1567 83.0587 92.3347 81.2993 88.452 80.45C84.6907 79.4793 80.808 78.994 76.804 78.994C68.1893 78.994 61.2733 81.6027 56.056 86.82C50.96 91.916 48.412 99.378 48.412 109.206C48.412 111.026 48.412 112.846 48.412 114.666C48.412 116.365 48.412 118.124 48.412 119.944L38.584 112.846C41.0107 108.721 43.862 105.263 47.138 102.472C50.414 99.56 54.2967 97.376 58.786 95.92C63.2753 94.3427 68.4927 93.554 74.438 93.554C82.2033 93.554 89.362 95.2527 95.914 98.65C102.587 101.926 107.926 106.597 111.93 112.664C116.055 118.731 118.118 125.95 118.118 134.322C118.118 143.422 115.813 151.309 111.202 157.982C106.591 164.655 100.343 169.812 92.456 173.452C84.6907 177.092 76.0153 178.912 66.43 178.912ZM63.518 149.246C66.066 149.246 68.3107 148.761 70.252 147.79C72.3147 146.698 73.892 145.181 74.984 143.24C76.076 141.299 76.622 138.993 76.622 136.324C76.622 132.32 75.4087 129.165 72.982 126.86C70.5553 124.433 67.4007 123.22 63.518 123.22C60.97 123.22 58.7253 123.766 56.784 124.858C54.8427 125.95 53.2653 127.467 52.052 129.408C50.96 131.349 50.414 133.655 50.414 136.324C50.414 138.993 50.96 141.299 52.052 143.24C53.2653 145.181 54.8427 146.698 56.784 147.79C58.7253 148.761 60.97 149.246 63.518 149.246ZM183.298 178.912C172.014 178.912 162.004 176.303 153.268 171.086C144.654 165.869 137.859 158.285 132.884 148.336C128.031 138.387 125.604 126.375 125.604 112.3C125.604 98.2253 128.031 86.2133 132.884 76.264C137.859 66.3147 144.654 58.7313 153.268 53.514C162.004 48.2967 172.014 45.688 183.298 45.688C194.582 45.688 204.532 48.2967 213.146 53.514C221.882 58.7313 228.677 66.3147 233.53 76.264C238.505 86.2133 240.992 98.2253 240.992 112.3C240.992 126.375 238.505 138.387 233.53 148.336C228.677 158.285 221.882 165.869 213.146 171.086C204.532 176.303 194.582 178.912 183.298 178.912ZM183.298 144.514C186.089 144.514 188.576 143.543 190.76 141.602C192.944 139.661 194.643 136.324 195.856 131.592C197.191 126.86 197.858 120.429 197.858 112.3C197.858 104.049 197.191 97.6187 195.856 93.008C194.643 88.276 192.944 84.9393 190.76 82.998C188.576 81.0567 186.089 80.086 183.298 80.086C180.508 80.086 178.02 81.0567 175.836 82.998C173.652 84.9393 171.893 88.276 170.558 93.008C169.345 97.6187 168.738 104.049 168.738 112.3C168.738 120.429 169.345 126.86 170.558 131.592C171.893 136.324 173.652 139.661 175.836 141.602C178.02 143.543 180.508 144.514 183.298 144.514Z" fill="white"/>
</svg>
